<?xml version="1.0" encoding="UTF-8"?>
<svg id="Layer_1" xmlns="http://www.w3.org/2000/svg" version="1.1" xmlns:xlink="http://www.w3.org/1999/xlink" viewBox="0 0 612 792">
  <!-- Generator: Adobe Illustrator 29.1.0, SVG Export Plug-In . SVG Version: 2.1.0 Build 142)  -->
  <defs>
    <style>
      .st0 {
        fill: #881719;
      }

      .st1 {
        fill: #b1902f;
      }

      .st2 {
        font-size: 74.71px;
      }

      .st2, .st3, .st4, .st5, .st6, .st7, .st8, .st9, .st10, .st11, .st12, .st13 {
        fill: #eebf1b;
      }

      .st2, .st3, .st4, .st5, .st7, .st8, .st9, .st10, .st11, .st12, .st13 {
        font-family: Algerian, Algerian;
      }

      .st3 {
        font-size: 74.68px;
      }

      .st4 {
        font-size: 74.32px;
      }

      .st5 {
        font-size: 72.32px;
      }

      .st14 {
        fill: #eebf1c;
      }

      .st15 {
        clip-path: url(#clippath-1);
      }

      .st7 {
        font-size: 62.72px;
      }

      .st8 {
        font-size: 73.56px;
      }

      .st9 {
        font-size: 62.72px;
      }

      .st16 {
        clip-path: url(#clippath-3);
      }

      .st10 {
        font-size: 61.23px;
      }

      .st17 {
        fill: #650a34;
      }

      .st18 {
        fill: #0f2347;
      }

      .st19 {
        fill: #871719;
      }

      .st20 {
        fill: #9c1c1f;
      }

      .st21 {
        clip-path: url(#clippath-2);
      }

      .st22 {
        clip-path: url(#clippath);
      }

      .st11 {
        font-size: 73.56px;
      }

      .st12 {
        font-size: 62.72px;
      }

      .st13 {
        font-size: 72.69px;
      }
    </style>
    <clipPath id="clippath">
      <path class="st20" d="M523.5,370.7c-13.41,56.09-61.86,193.48-161.14,169.22-95.35-23.3-82.3-174.76-67.66-230.53,11.63-44.28,24.19-9.8,121.51,13.99,95.35,23.3,120.7-8.76,107.3,47.33Z"/>
    </clipPath>
    <clipPath id="clippath-1">
      <path class="st18" d="M392.26,253.99c14.29,82.02,29.33,291.73-111.33,315.44-135.1,22.78-203.33-185.66-215.87-267.96-9.95-65.34,25.47-26.63,163.35-49.88,135.1-22.78,149.56-79.63,163.86,2.39Z"/>
    </clipPath>
    <clipPath id="clippath-2">
      <path class="st20" d="M381.77,293.7c7.63,73.87,7.72,261.43-120.96,274.04-123.58,12.11-171.83-177.53-177.86-251.54-4.79-58.75,24.73-22.16,150.87-34.53,123.58-12.11,140.32-61.84,147.95,12.03Z"/>
    </clipPath>
    <clipPath id="clippath-3">
      <path class="st19" d="M351.38,321.55c7.63,73.87,7.72,261.43-120.96,274.04-123.58,12.11-171.83-177.53-177.86-251.54-4.79-58.75,24.73-22.16,150.87-34.53,123.58-12.11,140.32-61.84,147.95,12.03Z"/>
    </clipPath>
  </defs>
  <g>
    <path class="st18" d="M101,132.14h404.87c38.22,0,69.25,31.03,69.25,69.25v356.56c0,38.22-31.03,69.25-69.25,69.25H99.77c-38.22,0-69.25-31.03-69.25-69.25V202.61c0-38.9,31.58-70.48,70.48-70.48Z"/>
    <polygon class="st18" points="219.92 599.14 91.24 733.74 78.85 513.33 154.03 593.71 219.92 599.14"/>
  </g>
  <g>
    <g>
      <path class="st20" d="M523.5,370.7c-13.41,56.09-61.86,193.48-161.14,169.22-95.35-23.3-82.3-174.76-67.66-230.53,11.63-44.28,24.19-9.8,121.51,13.99,95.35,23.3,120.7-8.76,107.3,47.33Z"/>
      <g class="st22">
        <polygon class="st20" points="644.8 636.62 356.68 566.69 422.49 289.26 710.61 359.19 644.8 636.62"/>
        <path class="st0" d="M476.55,387.95c-13.41,56.09-61.86,193.48-161.14,169.22-95.35-23.3-82.3-174.76-67.66-230.53,11.63-44.28,24.19-9.8,121.51,13.99,95.35,23.3,120.7-8.76,107.3,47.33Z"/>
      </g>
    </g>
    <g>
      <path class="st1" d="M432.09,374.4c8.27-10.46,10.67,6.46,23.61,15.63,12.94,9.17,31.5,7.11,23.23,17.57-8.27,10.46-25.68,12.23-38.61,3.07-12.94-9.17-16.5-25.8-8.23-36.26Z"/>
      <path class="st6" d="M429.85,377.52c8.27-10.46,10.67,6.46,23.61,15.63,12.94,9.17,31.5,7.11,23.23,17.57-8.27,10.46-25.68,12.23-38.61,3.07-12.94-9.17-16.5-25.8-8.23-36.26Z"/>
    </g>
    <g>
      <path class="st1" d="M322.25,363.92c-.35-13.3,12.37-1.51,28.22-2.28,15.85-.78,28.82-13.83,29.17-.53.35,13.3-11.92,25.42-27.76,26.2-15.85.78-29.27-10.08-29.63-23.39Z"/>
      <path class="st6" d="M322.53,367.76c-.35-13.3,12.37-1.51,28.22-2.28,15.85-.78,28.82-13.83,29.17-.53.35,13.3-11.92,25.42-27.76,26.2-15.85.78-29.27-10.08-29.63-23.39Z"/>
    </g>
  </g>
  <g>
    <path class="st18" d="M392.15,253.86c14.29,82.02,29.33,291.73-111.33,315.44-135.1,22.78-203.33-185.66-215.87-267.96-9.95-65.34,25.47-26.63,163.35-49.88,135.1-22.78,149.56-79.63,163.86,2.39Z"/>
    <g>
      <path class="st18" d="M392.26,253.99c14.29,82.02,29.33,291.73-111.33,315.44-135.1,22.78-203.33-185.66-215.87-267.96-9.95-65.34,25.47-26.63,163.35-49.88,135.1-22.78,149.56-79.63,163.86,2.39Z"/>
      <g class="st15">
        <polygon class="st18" points="696.63 538.72 288.67 608.17 217.31 202.77 625.27 133.31 696.63 538.72"/>
      </g>
    </g>
  </g>
  <g>
    <g>
      <g>
        <path class="st17" d="M381.68,293.58c7.63,73.87,7.72,261.43-120.96,274.04-123.58,12.11-171.83-177.53-177.86-251.54-4.79-58.75,24.73-22.16,150.87-34.53,123.58-12.11,140.32-61.84,147.95,12.03Z"/>
        <g>
          <path class="st20" d="M381.77,293.7c7.63,73.87,7.72,261.43-120.96,274.04-123.58,12.11-171.83-177.53-177.86-251.54-4.79-58.75,24.73-22.16,150.87-34.53,123.58-12.11,140.32-61.84,147.95,12.03Z"/>
          <g class="st21">
            <polygon class="st20" points="638.55 565.51 265.31 602.68 226.94 237.54 600.17 200.36 638.55 565.51"/>
            <path class="st0" d="M351.29,321.43c7.63,73.87,7.72,261.43-120.96,274.04-123.58,12.11-171.83-177.53-177.86-251.54-4.79-58.75,24.73-22.16,150.87-34.53,123.58-12.11,140.32-61.84,147.95,12.03Z"/>
            <g>
              <path class="st19" d="M351.38,321.55c7.63,73.87,7.72,261.43-120.96,274.04-123.58,12.11-171.83-177.53-177.86-251.54-4.79-58.75,24.73-22.16,150.87-34.53,123.58-12.11,140.32-61.84,147.95,12.03Z"/>
              <g class="st16">
                <polygon class="st19" points="608.15 593.36 234.92 630.54 196.55 265.39 569.78 228.22 608.15 593.36"/>
              </g>
            </g>
          </g>
        </g>
      </g>
      <path class="st6" d="M188.86,471.44c-.17-8.55,30.39,10.93,64.11,9.13,33.72-1.81,60.95-34.29,61.23-20.03.44,22.46-24.79,55.09-58.51,56.9-33.72,1.81-66.39-23.53-66.83-45.99Z"/>
      <g>
        <path class="st19" d="M345.76,376.36c-2.95,19.04-13.99-14.51-34.02-17.11-20.03-2.59-41.47,26.76-38.51,7.71,2.95-19.04,21.59-32.38,41.62-29.78,20.03,2.59,33.87,20.14,30.92,39.18Z"/>
        <path class="st6" d="M344.9,379.76c-2.8,18.05-14.09-13.87-34.12-16.46-20.03-2.59-41.21,25.12-38.41,7.06,2.8-18.05,21.31-30.58,41.34-27.99,20.03,2.59,34,19.33,31.2,37.38Z"/>
      </g>
      <g>
        <path class="st1" d="M212.13,373.01c5.58,18.44-19.11-7.71-38.56-2.24-19.45,5.47-26.28,40.48-31.87,22.05-5.58-18.44,5.65-37.82,25.1-43.29,19.45-5.47,39.74,5.04,45.32,23.48Z"/>
        <path class="st14" d="M212.83,376.44c5.29,17.48-18.92-7.08-38.37-1.61-19.45,5.47-26.76,38.89-32.06,21.42-5.29-17.48,6.18-36.08,25.63-41.55,19.45-5.47,39.5,4.26,44.8,21.74Z"/>
      </g>
    </g>
    <path class="st6" d="M278.09,287.85c0,5.77-7.2,37.3-50.53,37.3s-51.42-25.62-51.42-31.4,6.31,15.94,49.64,15.94,52.3-27.63,52.3-21.85Z"/>
    <path class="st6" d="M374.8,262.99c.7,5.57.03,37.7-40.69,43.72-40.72,6.01-51.42-17.57-52.12-23.14-.7-5.57,7.86,14.5,48.58,8.48,40.72-6.01,43.52-34.63,44.22-29.06Z"/>
    <path class="st6" d="M171.57,295.72c-.35,4.84-8.48,30.77-45.91,27.59-37.43-3.18-42.86-25.27-42.51-30.12s4.49,13.84,41.92,17.02c37.43,3.18,46.85-19.34,46.5-14.49Z"/>
    <path class="st6" d="M274.17,284.31c-3.69,2.16-20.03,15.04-45.85,17.15-25.81,2.11-43.59-8.08-47.63-9.51-4.59-1.62,22.17,5.69,47.99,3.58,25.81-2.11,53.98-16.2,45.49-11.23Z"/>
    <ellipse class="st1" cx="281.11" cy="282.7" rx="7.72" ry="7.87"/>
    <ellipse class="st1" cx="174.75" cy="293" rx="7.87" ry="7.71" transform="translate(-148.71 401.47) rotate(-77.72)"/>
    <path class="st6" d="M370.73,260.39c-2.87,2.69-14.96,17.84-37.5,23.88-22.54,6.04-40.26-1.23-44.13-2.01-4.38-.89,20.79,2.18,43.33-3.86,22.54-6.04,44.91-24.2,38.31-18.01Z"/>
    <path class="st6" d="M165.64,293.18c-3.37,1.64-18.75,12.16-40.56,10.73-21.82-1.43-35.26-13.93-38.44-15.9-3.61-2.23,17.72,8.66,39.54,10.08,21.82,1.43,47.22-8.68,39.46-4.92Z"/>
    <ellipse class="st6" cx="283.68" cy="279.85" rx="2.49" ry="2.35"/>
    <ellipse class="st6" cx="177.4" cy="289.93" rx="2.49" ry="2.35"/>
  </g>
  <g>
    <text></text>
    <text class="st5" transform="translate(71.39 269.69) rotate(-3.68) scale(1.17 1) skewX(.04)"><tspan x="0" y="0">C</tspan></text>
  </g>
  <text/>
  <g>
    <text></text>
    <text class="st4" transform="translate(114.13 270.96) rotate(-.33) scale(1.15 1)"><tspan x="0" y="0">u</tspan></text>
  </g>
  <g>
    <text></text>
    <text class="st2" transform="translate(159.48 269.73) rotate(-1.11) scale(1.13 1) skewX(.01)"><tspan x="0" y="0">r</tspan></text>
  </g>
  <g>
    <text></text>
    <text class="st3" transform="translate(208.92 270.49) rotate(-4.05) scale(1.04 1) skewX(.05)"><tspan x="0" y="0">t</tspan></text>
  </g>
  <g>
    <text></text>
    <text class="st13" transform="translate(243.77 267.82) rotate(-11.31) scale(1.12 1) skewX(.12)"><tspan x="0" y="0">a</tspan></text>
  </g>
  <g>
    <text></text>
    <text class="st11" transform="translate(304.69 257.67) rotate(-15.46) scale(1.15 1) skewX(.16)"><tspan x="0" y="0">i</tspan></text>
  </g>
  <g>
    <text></text>
    <text class="st8" transform="translate(331.74 250.73) rotate(-16.36) scale(1.15 1) skewX(.16)"><tspan x="0" y="0">n</tspan></text>
  </g>
  <g>
    <text></text>
    <text class="st9" transform="translate(386.45 306.31) rotate(10.58) scale(1.12 1) skewX(-.11)"><tspan x="0" y="0">C</tspan></text>
  </g>
  <g>
    <text></text>
    <text class="st10" transform="translate(421.02 313.42) rotate(10.82) scale(1.07 1) skewX(-.12)"><tspan x="0" y="0">a</tspan></text>
  </g>
  <g>
    <text></text>
    <text class="st12" transform="translate(466.73 321.2) rotate(4.7) skewX(-.06)"><tspan x="0" y="0">l</tspan></text>
  </g>
  <g>
    <text></text>
    <text class="st7" transform="translate(502.27 324.26) rotate(-1.95) skewX(.02)"><tspan x="0" y="0">l</tspan></text>
  </g>
</svg>